<?xml version="1.0" encoding="UTF-8"?>
<!DOCTYPE svg PUBLIC "-//W3C//DTD SVG 1.1//EN" "http://www.w3.org/Graphics/SVG/1.1/DTD/svg11.dtd">
<svg version="1.1" xmlns="http://www.w3.org/2000/svg" xmlns:xlink="http://www.w3.org/1999/xlink" x="0px" y="0px" width="1024" height="1024" viewBox="0, 0, 1024, 1024">
  <g id="Layer 1"/>
  <g id="Layer 1">
    <g>
      <path d="M504.176,123.275 C387.445,123.275 292.83,217.916 292.83,334.628 C292.83,451.353 387.445,545.98 504.176,545.98 C511.033,545.98 517.821,545.65 524.516,544.997 C506.907,507.722 478.768,476.382 443.87,454.943 L444.12,454.546 C399.068,427.826 369.679,384.089 369.679,334.628 C369.679,253.286 449.112,187.338 547.12,187.338 C615.162,187.338 674.23,219.141 704.001,265.829 C675.449,182.892 596.805,123.275 504.176,123.275" fill="#cf0100"/>
      <path d="M348.214,424.522 L376.113,491.459 L376.537,502.813 C378.825,504.555 381.1,506.31 383.471,507.959 C384.44,508.624 385.392,509.307 386.372,509.963 C390.342,512.638 394.391,515.239 398.559,517.647 C410.232,522.626 421.033,529.634 430.325,538.926 C475.684,584.277 469.292,664.207 416.04,717.459 C362.798,770.701 282.869,777.085 237.51,731.747 C192.159,686.382 198.553,606.459 251.792,553.22 C280.421,524.591 316.71,509.697 351.238,508.968 C322.186,489.038 298.352,462.09 282.24,430.507 C190.503,453.564 122.574,536.464 122.574,635.325 C122.574,752.06 217.194,846.684 333.926,846.684 C450.645,846.684 545.272,752.06 545.272,635.325 C545.272,523.422 458.268,431.883 348.214,424.522" fill="#cf0100"/>
      <path d="M786.672,413.541 C786.672,449.171 757.799,478.047 722.163,478.047 C686.556,478.047 657.67,449.171 657.67,413.541 C657.67,377.921 686.556,349.032 722.163,349.032 C757.799,349.032 786.672,377.921 786.672,413.541" fill="#cf01ce"/>
      <path d="M845.635,505.657 C863.977,548.901 863.906,604.108 841.163,656.364 C802.182,745.855 711.522,792.679 638.639,760.949 C602.567,745.242 577.644,713.232 566.367,674.056 C559.473,711.284 542.837,745.059 519.173,772.689 C557.791,814.55 612.985,840.872 674.413,840.872 C791.144,840.872 885.762,746.232 885.762,629.519 C885.762,583.239 870.851,540.471 845.635,505.657 z M577.261,541.46 C578.817,537.88 580.472,534.396 582.204,530.976 C583.173,529.021 584.229,527.152 585.264,525.25 C586.294,523.339 587.289,521.411 588.369,519.559 C588.642,519.089 588.931,518.65 589.201,518.176 C593.118,511.562 597.308,505.211 601.781,499.202 L601.731,499.186 C612.964,484.035 625.854,470.926 639.849,460.215 C612.874,473.994 581.108,481.93 547.12,481.93 C529.758,481.93 513.058,479.716 497.219,475.865 C529.418,503.855 553.075,541.41 563.709,584.137 C566.64,569.903 571.116,555.565 577.261,541.46" fill="#01cfcf"/>
    </g>
  </g>
  <defs/>
</svg>
